<svg xmlns="http://www.w3.org/2000/svg" version="1.1" xmlns:xlink="http://www.w3.org/1999/xlink" width="300" height="300"><svg version="1.1" id="SvgjsSvg1037" x="0px" y="0px" viewBox="0 0 300 300" style="enable-background:new 0 0 300 300;" xml:space="preserve" sodipodi:docname="Pirating is good practice-circle.svg" inkscape:version="1.2.2 (b0a8486541, 2022-12-01)" xmlns:inkscape="http://www.inkscape.org/namespaces/inkscape" xmlns:sodipodi="http://sodipodi.sourceforge.net/DTD/sodipodi-0.dtd" xmlns="http://www.w3.org/2000/svg" xmlns:svg="http://www.w3.org/2000/svg"><sodipodi:namedview id="SvgjsSodipodi:namedview1036" pagecolor="#ffffff" bordercolor="#000000" borderopacity="0.25" inkscape:showpageshadow="2" inkscape:pageopacity="0.0" inkscape:pagecheckerboard="0" inkscape:deskcolor="#d1d1d1" showgrid="false" inkscape:zoom="1.4794241" inkscape:cx="221.70789" inkscape:cy="164.59107" inkscape:window-width="1920" inkscape:window-height="1008" inkscape:window-x="0" inkscape:window-y="0" inkscape:window-maximized="1" inkscape:current-layer="Layer_1"></sodipodi:namedview><defs id="SvgjsDefs1035">
	
	
	
	
	
	
	
	
	
	
	
	
	
	
	
	
</defs>
<style type="text/css" id="SvgjsStyle1034">
	.st0{fill:#231F20;}
</style>

<circle style="fill:#ffffff;stroke-width:0.932113" id="SvgjsCircle1033" cx="150" cy="150" r="150"></circle><g id="SvgjsG1032" transform="translate(50.09679,-3.000239)" style="fill:#000000">
	
	
	
	
	
	
	
	
	
	
	
	
<text xml:space="preserve" style="font-size:33.3333px;line-height:1;fill:#000000" x="101.59309" y="60.866077" id="SvgjsText1031"><tspan sodipodi:role="line" x="101.59309" y="60.866077" style="font-style:normal;font-variant:normal;font-weight:normal;font-stretch:normal;font-size:33.3333px;font-family:'HelveticaNeueLT Pro 57 Cn';-inkscape-font-specification:'HelveticaNeueLT Pro 57 Cn';text-align:center;text-anchor:middle;fill:#000000" id="SvgjsTspan1030">PIRATING IS</tspan><tspan sodipodi:role="line" x="101.59309" y="95.361877" style="font-style:normal;font-variant:normal;font-weight:normal;font-stretch:normal;font-size:33.3333px;font-family:'HelveticaNeueLT Pro 57 Cn';-inkscape-font-specification:'HelveticaNeueLT Pro 57 Cn';text-align:center;text-anchor:middle;fill:#000000" id="SvgjsTspan1029">GOOD PRACTICE</tspan></text><text xml:space="preserve" style="font-style:normal;font-variant:normal;font-weight:bold;font-stretch:normal;font-size:32px;font-family:'HelveticaNeueLT Pro 57 Cn';-inkscape-font-specification:'HelveticaNeueLT Pro 57 Cn Bold';text-align:center;text-anchor:middle;fill:#000000" x="401.47687" y="88.930855" id="SvgjsText1028"><tspan sodipodi:role="line" id="SvgjsTspan1027" x="401.47687" y="88.930855"></tspan></text></g>
<path class="st0" d="m 228.7,169.33 v -51.75 c 0,-6.29 -5.3,-11.4 -11.85,-11.4 H 149.94 83.03 c -6.54,0 -11.85,5.1 -11.85,11.4 v 51.75 c -1.7,1.86 -1.57,5.91 -1.57,5.91 v 21.06 c 0,6.29 5.3,11.4 11.85,11.4 h 68.48 68.48 c 6.54,0 11.85,-5.1 11.85,-11.4 v -21.06 c 0,0 0.13,-4.05 -1.57,-5.91 z m -116.43,35.15 c -2.77,0 -5.02,-2.16 -5.02,-4.83 0,-2.67 2.25,-4.83 5.02,-4.83 2.77,0 5.02,2.16 5.02,4.83 0,2.66 -2.25,4.83 -5.02,4.83 z m 0.9,-36.36 c -7.07,0 -12.8,-5.51 -12.8,-12.31 0,-6.8 5.73,-12.31 12.8,-12.31 7.07,0 12.8,5.51 12.8,12.31 0,6.8 -5.73,12.31 -12.8,12.31 z m 16.92,35.33 c -3.43,0 -6.21,-2.68 -6.21,-5.98 0,-3.3 2.78,-5.98 6.21,-5.98 3.43,0 6.21,2.68 6.21,5.98 0,3.31 -2.78,5.98 -6.21,5.98 z m 3.76,-45.02 V 143.82 H 166 v 14.61 z m 35.94,45.02 c -3.43,0 -6.22,-2.68 -6.22,-5.98 0,-3.3 2.78,-5.98 6.22,-5.98 3.43,0 6.21,2.68 6.21,5.98 0.01,3.31 -2.77,5.98 -6.21,5.98 z m 17.82,1.03 c -2.77,0 -5.02,-2.16 -5.02,-4.83 0,-2.67 2.25,-4.83 5.02,-4.83 2.77,0 5.02,2.16 5.02,4.83 0,2.66 -2.25,4.83 -5.02,4.83 z m -0.9,-36.36 c -7.07,0 -12.8,-5.51 -12.8,-12.31 0,-6.8 5.73,-12.31 12.8,-12.31 7.07,0 12.8,5.51 12.8,12.31 0,6.8 -5.73,12.31 -12.8,12.31 z" id="SvgjsPath1026" style="fill:#000000"></path><path class="st0" d="m 71.96,211.12 c 0,0 9.09,2.7 29.23,5.65 20.14,2.95 43.24,6.44 46.86,7.09 4.48,0.8 9.1,0.6 13.66,-0.37 12.37,-2.63 63.59,-13.66 63.59,-13.66 0,0 7.37,-2.52 8.23,-7.86 0.86,-5.34 4.73,-7.92 8.54,-7.92 3.81,0 7.37,2.76 7.37,7.31 0,4.54 -1.11,5.47 -1.11,5.47 0,0 -1.84,3.13 0.49,5.59 2.33,2.46 3.99,5.71 3.81,9.09 -0.18,3.38 -2.15,8.11 -6.26,8.11 -4.11,0 -6.51,-3.01 -8.04,-5.71 -1.54,-2.7 -6.88,-3.56 -10.99,-2.89 -4.11,0.68 -38.87,7.06 -38.87,7.06 0,0 -1.72,0.49 -1.72,1.11 0,0.61 0.61,0.92 1.78,1.11 1.17,0.18 25.3,3.5 25.3,3.5 0,0 4.91,0.68 6.75,-3.07 1.84,-3.75 5.53,-7.86 12.53,-5.71 3.25,1.11 5.28,4.61 4.79,7.68 -0.49,3.07 -2.52,5.53 -4.3,6.88 -1.72,1.47 -2.09,3.01 -2.15,4.61 -0.06,1.6 1.47,15.66 -10.01,15.66 -7.06,0 -7.74,-3.81 -8.04,-6.57 -0.3,-2.76 -0.43,-6.39 -4.24,-7.18 -3.81,-0.8 -24.38,-5.59 -46.06,-9.15 -2.76,-0.55 -5.65,-1.47 -14.86,0.12 -9.21,1.6 -40.59,7.8 -59.63,12.1 -2.46,0.43 -5.59,1.41 -6.63,4.24 -1.04,2.82 -1.35,11.54 -10.01,11.54 -8.66,0 -7.31,-8.6 -7.31,-8.6 0,0 1.35,-5.1 1.17,-6.33 -0.18,-1.23 -0.12,-2.76 -2.64,-6.63 -2.52,-3.87 -3.44,-12.77 4.24,-16.46 1.66,-0.61 8.23,-4.97 10.62,4.61 0.43,1.66 0.55,6.57 8.35,5.77 7.8,-0.8 39.12,-6.14 39.12,-6.14 0,0 2.15,-0.25 1.9,-0.92 -0.25,-0.68 -1.46,-0.77 -4.08,-0.95 -2.63,-0.18 -40.35,-6.17 -50.11,-6.91 -1.93,-0.18 -8.84,-0.83 -12.11,5.02 -3.27,5.85 -5.43,6.26 -8.57,6.17 -3.13,-0.09 -7.74,-2.16 -7.74,-6.63 0,-4.47 5.25,-11.1 5.25,-11.1 0,0 1.84,-2.07 1.29,-6.54 -0.55,-4.47 1.34,-8.43 3.45,-10.18 2.11,-1.75 8.43,-5.57 12.02,0 1.2,1.7 1.47,6.68 1.61,8.24 0.14,1.54 0.34,3.2 3.53,3.75 z" id="SvgjsPath1025" style="fill:#000000"></path><text xml:space="preserve" style="font-style:normal;font-variant:normal;font-weight:normal;font-stretch:normal;font-size:17.3333px;font-family:'HelveticaNeueLT Pro 57 Cn';-inkscape-font-specification:'HelveticaNeueLT Pro 57 Cn';text-align:center;text-anchor:middle;fill:#000000" x="149.51096" y="264.39899" id="SvgjsText1024"><tspan sodipodi:role="line" id="SvgjsTspan1023" x="149.51096" y="264.39899" style="font-size:17.3333px;fill:#000000">AND IT'S COOL</tspan></text>
</svg><style>@media (prefers-color-scheme: light) { :root { filter: none; } }
@media (prefers-color-scheme: dark) { :root { filter: none; } }
</style></svg>